<?xml version="1.0" standalone="no"?>
<!DOCTYPE svg PUBLIC "-//W3C//DTD SVG 20010904//EN"
 "http://www.w3.org/TR/2001/REC-SVG-20010904/DTD/svg10.dtd">
<svg version="1.0" xmlns="http://www.w3.org/2000/svg"
 width="700.000000pt" height="700.000000pt" viewBox="0 0 700.000000 700.000000"
 preserveAspectRatio="xMidYMid meet">
<metadata>
Created by potrace 1.14, written by Peter Selinger 2001-2017
</metadata>
<g transform="translate(0.000000,700.000000) scale(0.100000,-0.100000)"
fill="#000000" stroke="none">
<path d="M802 6197 l-802 -802 0 -2698 0 -2697 2719 0 2720 0 780 781 781 780
0 2720 0 2719 -2698 0 -2697 0 -803 -803z m5788 -2034 l0 -2428 -662 -662
-663 -663 -2427 0 -2428 0 0 2407 0 2408 682 682 683 683 2407 0 2408 0 0
-2427z"/>
<path d="M3527 5038 c-35 -62 -115 -201 -177 -308 -62 -107 -121 -211 -132
-230 -60 -104 -326 -564 -358 -620 -59 -101 -521 -901 -539 -935 -9 -16 -24
-41 -32 -55 -19 -30 -242 -416 -277 -480 -14 -25 -39 -70 -58 -100 -18 -30
-83 -143 -144 -250 -62 -107 -114 -198 -117 -202 -2 -5 125 -8 284 -8 l288 0
16 28 c8 15 69 119 134 232 168 290 333 578 361 626 12 22 87 151 165 285 78
134 154 265 168 291 14 26 50 89 80 140 30 51 62 107 71 123 10 17 67 116 127
220 61 105 142 246 182 315 39 69 75 132 81 140 11 17 63 107 93 162 11 21 22
36 25 34 3 -4 35 -119 47 -171 3 -11 34 -126 69 -255 l64 -235 -31 -55 c-27
-48 -112 -198 -137 -240 -11 -18 -276 -477 -306 -529 -101 -176 -336 -583
-351 -608 -31 -54 -125 -216 -143 -248 -80 -139 -123 -211 -131 -220 -5 -5 -9
-15 -9 -22 0 -11 55 -13 286 -11 l285 3 259 450 c143 248 264 457 269 465 14
20 130 223 163 283 l27 50 15 -54 c8 -30 24 -88 35 -129 11 -41 35 -133 55
-205 19 -71 78 -292 131 -490 53 -198 99 -363 102 -367 2 -5 119 -8 259 -8
l254 0 -6 28 c-3 15 -10 41 -14 57 -8 28 -29 107 -85 320 -13 50 -31 115 -39
145 -18 67 -165 616 -213 795 -19 72 -41 155 -49 185 -16 58 -41 151 -70 263
-20 77 -24 64 63 211 29 49 53 89 53 91 0 1 49 87 109 191 l109 189 -261 5
-260 5 -17 65 c-10 36 -44 162 -75 280 -55 208 -82 307 -112 418 l-14 52 -254
0 -254 0 -64 -112z"/>
</g>
</svg>
